<?xml version="1.0" encoding="utf-8"?>
<!-- Generator: Adobe Adobe Illustrator 24.2.0, SVG Export Plug-In . SVG Version: 6.00 Build 0)  -->
<svg version="1.1" id="Layer_1" xmlns="http://www.w3.org/2000/svg" xmlns:xlink="http://www.w3.org/1999/xlink" x="0px" y="0px"
	 width="680.05px" height="148.87px" viewBox="0 0 680.05 148.87" style="enable-background:new 0 0 680.05 148.87;"
	 xml:space="preserve">
<g>
	<path d="M459.54,117.32L459.54,117.32c0,17.43-14.13,31.56-31.56,31.56h-94.87v-16.83h94.87c8.13,0,14.73-6.59,14.73-14.73v0
		c0-8.13-6.59-14.73-14.73-14.73h-67.36c-17.43,0-31.56-14.13-31.56-31.56v0c0-17.43,14.13-31.56,31.56-31.56h95.44V56.3h-95.44
		c-8.13,0-14.73,6.59-14.73,14.73v0c0,8.13,6.59,14.73,14.73,14.73h67.36C445.41,85.76,459.54,99.89,459.54,117.32z"/>
	<path d="M318.67,117.32L318.67,117.32c0,17.43-14.13,31.56-31.56,31.56h-94.87v-16.83h94.87c8.13,0,14.73-6.59,14.73-14.73v0
		c0-8.13-6.59-14.73-14.73-14.73h-67.36c-17.43,0-31.56-14.13-31.56-31.56v0c0-17.43,14.13-31.56,31.56-31.56h95.44V56.3h-95.44
		c-8.13,0-14.73,6.59-14.73,14.73v0c0,8.13,6.59,14.73,14.73,14.73h67.36C304.54,85.76,318.67,99.89,318.67,117.32z"/>
	<g>
		<path d="M503.31,56.3h90.53V39.48h-90.53c-17.43,0-31.56,14.13-31.56,31.56v0c0,9.16,3.92,17.38,10.15,23.14
			c-6.23,5.76-10.15,13.99-10.15,23.14v0c0,17.43,14.13,31.56,31.56,31.56h90.53v-16.83h-90.53c-8.13,0-14.73-6.59-14.73-14.73v0
			c0-8.13,6.59-14.73,14.73-14.73h90.53V85.76h-90.53c-8.13,0-14.73-6.59-14.73-14.73v0C488.58,62.9,495.18,56.3,503.31,56.3z"/>
	</g>
	<rect x="619.29" width="16.83" height="148.85"/>
	<rect x="152.98" y="39.47" width="16.83" height="109.37"/>
	<g>
		<path d="M125.85,92.64c5.32-5.65,8.6-13.24,8.6-21.61v0c0-17.43-14.13-31.56-31.56-31.56H16.83v0H0v109.37h8.33v0.03h97.88
			c17.43,0,31.56-14.13,31.56-31.56v0C137.77,107.32,133.1,98.42,125.85,92.64z M102.9,56.3c8.13,0,14.73,6.59,14.73,14.73v0
			c0,8.13-6.59,14.73-14.73,14.73H16.83V56.3H102.9z M120.94,117.32c0,8.13-6.59,14.73-14.73,14.73H16.83v-29.46h86.07h3.31
			C114.34,102.59,120.94,109.18,120.94,117.32L120.94,117.32z"/>
	</g>
	<rect x="152.98" y="0.64" transform="matrix(-1 -1.224647e-16 1.224647e-16 -1 322.7823 21.9934)" width="16.83" height="20.71"/>
	<rect x="663.23" width="16.83" height="148.85"/>
</g>
</svg>
