<svg
   xmlns="http://www.w3.org/2000/svg"
   width="1000"
   height="219.023"
   viewBox="0 0 264.58333 57.949836">
  <g>
    <g
       style="fill:none"
       transform="matrix(2.5447097,0,0,2.5447459,-0.24726435,-1.593784)">
      <path
         d="m 10.2273,13.8787 v -2.839 H 3.05983 V 8.40333 H 9.89609 V 5.60387 H 3.05983 V 2.83901 H 10.2273 V 0 H 0 v 13.8787 z"
         transform="translate(19.668,9.30273)"
         fill="#000000" />
      <path
         fill-rule="evenodd"
         clip-rule="evenodd"
         d="M 9.51221,1.21094 C 10.5142,2.02002 11.021,3.14697 11.021,4.56104 11.0498,6.39746 10.0161,8.08398 8.37109,8.88428 L 11.4194,13.877 H 7.94287 L 5.25537,9.47412 H 3.06006 V 13.877 H 0 V 0 H 5.72266 C 7.26074,0 8.53662,0.407227 9.51221,1.21094 Z M 5.22119,2.8374 H 3.06006 v 3.81787 h 2.16113 c 1.86475,0 2.7666,-0.65576 2.7666,-1.93798 0,-1.28174 -0.8789,-1.87989 -2.7666,-1.87989 z"
         transform="translate(35.1543,6.89551)"
         fill="#000000" />
      <path
         d="M 10.8849,9.54684 C 9.96496,10.7975 8.74168,11.4335 7.2462,11.4335 6.1562,11.461 5.10132,11.0451 4.32083,10.2801 3.53537,9.51059 3.1369,8.44946 3.1369,7.12635 3.1369,5.80324 3.53537,4.78331 4.32083,4.03195 5.05188,3.28854 6.05035,2.87273 7.09042,2.87855 8.50503,2.85588 9.8387,3.53983 10.6504,4.70422 L 10.7045,4.78166 12.7673,2.66764 12.7231,2.61327 C 11.3309,0.879878 9.48286,0 7.22816,0 5.17024,0 3.43535,0.659085 2.06941,1.97725 0.703467,3.29542 0,5.03211 0,7.18897 c 0,2.12719 0.696908,3.86553 2.07105,5.16723 1.37413,1.3017 3.15822,1.9575 5.2473,1.9575 2.3121,0 4.20115,-0.8783 5.61295,-2.6117 L 12.974,11.6477 10.9341,9.47434 Z"
         transform="translate(50.2271,9.08496)"
         fill="#000000" />
      <path
         fill-rule="evenodd"
         clip-rule="evenodd"
         d="M 5.40479,0 H 8.27783 L 8.28906,0.0493164 13.6675,13.877 H 10.501 L 9.49609,11.3906 H 4.15186 L 3.16797,13.877 H 0 L 0.0410156,13.77 Z M 5.18018,8.64893 h 3.32373 l -1.6626,-4.396 z"
         transform="translate(65.9756,6.89551)"
         fill="#000000" />
      <path
         fill-rule="evenodd"
         clip-rule="evenodd"
         d="m 9.51709,1.21094 c 1.00051,0.80908 1.50881,1.93603 1.50881,3.3501 0.0263,1.83544 -1.0093,3.52001 -2.65481,4.31835 L 11.4194,13.8789 H 7.94287 L 5.25537,9.47412 H 3.06006 V 13.8789 H 0 V 0 H 5.72754 C 7.26611,0 8.51709,0.401855 9.51709,1.21094 Z M 5.22119,2.83887 H 3.06006 v 3.81592 h 2.16113 c 1.86133,0 2.76465,-0.65577 2.76465,-1.9375 0,-1.28174 -0.87695,-1.87842 -2.76465,-1.87842 z"
         transform="translate(83.6294,9.30273)"
         fill="#000000" />
      <path
         d="M 0,0 H 3.04016 V 12.6742 H 0 Z"
         transform="translate(99.624,8.09814)"
         fill="#000000" />
      <path
         d="M 0,0 H 3.61572 V 3.6332 H 0 Z"
         transform="rotate(-67.120016,52.641763,-72.87727)"
         fill="#000000" />
      <path
         d="M 7.11502,7.51192 11.0275,0 h 3.1156 V 13.877 H 11.0685 V 5.95318 h -0.036 L 8.06937,11.3099 H 6.08032 L 3.11559,5.96142 H 3.07787 V 13.8704 H 0 V 0 h 3.11559 l 3.93548,7.51192 z"
         transform="translate(0.097168,6.89551)"
         fill="#000000" />
    </g>
  </g>
</svg>
