<svg version="1.1" id="Layer_1" xmlns:x="ns_extend;" xmlns:i="ns_ai;" xmlns:graph="ns_graphs;" xmlns="http://www.w3.org/2000/svg" xmlns:xlink="http://www.w3.org/1999/xlink" x="0px" y="0px" viewBox="0 0 243 62" style="enable-background:new 0 0 243 62;" xml:space="preserve">
 <style type="text/css">
  .st0{fill-rule:evenodd;clip-rule:evenodd;fill:#0095D3;}
	.st1{fill-rule:evenodd;clip-rule:evenodd;fill:#666666;}
 </style>
 <metadata>
  <sfw xmlns="ns_sfw;">
   <slices>
   </slices>
   <sliceSourceBounds bottomLeftOrigin="true" height="62" width="243" x="-60" y="-14.5">
   </sliceSourceBounds>
  </sfw>
 </metadata>
 <desc>
  Created with sketchtool.
 </desc>
 <g id="Home">
  <g id="Home---Desktop" transform="translate(-83.000000, -19.000000)">
   <g id="Global-Nav-_x2F_-White" transform="translate(-1.000000, 1.000000)">
    <g id="Logo---Colored">
     <g transform="translate(84.000000, 18.558824)">
      <path id="Fill-1" class="st0" d="M52.5,30.4c0,7-5.7,12.7-12.7,12.7h-7.3c-0.8,0-1.5-0.6-1.5-1.4V30.4c0-4.3-3.5-7.6-7.7-7.6
						c-4.3,0-7.7,3.4-7.7,7.6v11.2c0,0.8-0.6,1.4-1.5,1.4h-2.1c-0.8,0-1.5-0.6-1.5-1.4V30.4c0-7,5.7-12.7,12.7-12.7
						c7,0,12.7,5.6,12.7,12.7V38h3.7c4.3,0,7.7-3.4,7.7-7.6V19.1c0-0.8,0.6-1.4,1.5-1.4H51c0.8,0,1.5,0.6,1.5,1.4v0.1V30.4z
						 M31.1-0.6C13.9-0.6,0,13.3,0,30.4s13.9,31,31.1,31s31.1-13.8,31.1-31S48.3-0.6,31.1-0.6L31.1-0.6z">
      </path>
      <path id="Fill-3" class="st1" d="M89,17.8c-7,0-12.7,5.7-12.7,12.7v11.9c0,0.4,0.3,0.8,0.8,0.8h1c0.4,0,0.8-0.3,0.8-0.8V30.4
						c0-5.6,4.6-10.1,10.2-10.1s10.2,4.5,10.2,10.1v11.9c0,0.4,0.3,0.8,0.8,0.8h1c0.4,0,0.8-0.3,0.8-0.8V30.4
						C101.6,23.4,96,17.8,89,17.8">
      </path>
      <path id="Fill-5" class="st1" d="M118.7,40.6c-5.6,0-10.2-4.5-10.2-10.1s4.6-10.1,10.2-10.1s10.2,4.5,10.2,10.1
						C128.8,36,124.3,40.6,118.7,40.6 M131.4,42.4V30.4c0-7-5.7-12.7-12.7-12.7c-7,0-12.7,5.7-12.7,12.7c0,7,5.7,12.7,12.7,12.7
						c4.1,0,7.8-2,10.2-5v4.3c0,0.4,0.3,0.8,0.8,0.8h1C131.1,43.1,131.4,42.8,131.4,42.4">
      </path>
      <path id="Fill-7" class="st1" d="M200.6,40.6c-5.6,0-10.2-4.5-10.2-10.1s4.6-10.1,10.2-10.1s10.2,4.5,10.2,10.1
						S206.2,40.6,200.6,40.6L200.6,40.6z M213.3,30.4L213.3,30.4c0-7-5.7-12.7-12.7-12.7c-7,0-12.7,5.7-12.7,12.7
						c0,7,5.7,12.7,12.7,12.7c4.1,0,7.8-2,10.2-5v4.3c0,0.4,0.3,0.8,0.8,0.8h1c0.4,0,0.8-0.3,0.8-0.8V30.4z">
      </path>
      <path id="Fill-9" class="st1" d="M186.5,18.5c0-0.4-0.3-0.8-0.8-0.8h-1c-0.4,0-0.8,0.3-0.8,0.8v11.9c0,5.6-4.6,10.1-10.3,10.1
						h-7.1V30.4V18.5c0-0.4-0.3-0.8-0.8-0.8h-1c-0.4,0-0.8,0.3-0.8,0.8v11.9v10.1v2.6h10.3c6.9-0.3,12.3-5.9,12.3-12.7V18.5z">
      </path>
      <path id="Fill-11" class="st1" d="M147,17.8c-7,0-12.7,5.7-12.7,12.7v11.9c0,0.4,0.3,0.8,0.8,0.8h1c0.4,0,0.8-0.3,0.8-0.8V30.4
						c0-5.6,4.6-10.1,10.2-10.1c5.3,0,9.8,4.1,10.1,9.4c0,0.4,0.3,0.8,0.8,0.8h1c0.4,0,0.8-0.3,0.8-0.8
						C159.3,23,153.7,17.8,147,17.8">
      </path>
      <path id="Fill-13" class="st1" d="M230.3,17.8c-7,0-12.7,5.6-12.7,12.6v11.9c0,0.4,0.3,0.8,0.8,0.8h1c0.4,0,0.8-0.3,0.8-0.8
						V30.4c0-5.6,4.6-10.1,10.2-10.1c5.3,0,9.8,4.1,10.1,9.3c0,0.4,0.3,0.8,0.8,0.8h1c0.4,0,0.8-0.3,0.8-0.8
						C242.6,23,237.1,17.8,230.3,17.8">
      </path>
     </g>
    </g>
   </g>
  </g>
 </g>
</svg>