<svg version="1.1" id="Layer_1" xmlns="http://www.w3.org/2000/svg" xmlns:xlink="http://www.w3.org/1999/xlink" x="0px" y="0px" viewBox="0 0 55.8 77.4" style="enable-background:new 0 0 55.8 77.4;" xml:space="preserve">
 <style type="text/css">
  .st0{fill-rule:evenodd;clip-rule:evenodd;fill:#CC0000;}
 </style>
 <g>
  <path class="st0" d="M27.9,0C12.5,0,0,12.4,0,27.7c0,7.4,2.9,14.4,8.2,19.6s12.3,8.1,19.7,8.1c15.4,0,27.9-12.4,27.9-27.8
		C55.8,12.4,43.3,0,27.9,0z M45.1,34.8c-2.9,6.9-9.7,11.4-17.2,11.4C17.7,46.2,9.3,38,9.3,27.7c0-7.5,4.5-14.2,11.5-17.1
		c7-2.9,15-1.3,20.3,4C46.4,20,48,27.9,45.1,34.8z M37.2,27.7c0,5.1-4.2,9.2-9.3,9.2c-5.1,0-9.3-4.1-9.3-9.2c0-5.1,4.2-9.2,9.3-9.2
		C33,18.5,37.2,22.6,37.2,27.7L37.2,27.7z M4.8,59.1v3.3H7v2H4.8v5.4c0,1,0.3,1.3,1.3,1.3c0.3,0,0.6,0,0.9-0.1v2.3
		c-0.6,0.1-1.2,0.1-1.8,0.1c-2.3,0-3.4-0.7-3.4-2.6v-6.4H0v-2h1.8v-3.3H4.8z M18.6,71.3c-0.6,0-0.8-0.1-0.8-0.9h0v-5.2
		c0-2-1.6-3.1-4.8-3.1c-3.1,0-5,1.3-5.1,3.6h3c0.1-1.1,0.8-1.6,2-1.6c1,0,1.9,0.2,1.9,1.5c0,1-0.8,1.1-2.8,1.3
		C10.2,67,9.2,67.4,8.5,68c-0.7,0.6-1,1.4-1,2.3c0,2.1,1.5,3.3,3.7,3.3c1.8,0,3.1-0.6,3.8-1.5c0.2,1,0.9,1.4,2.3,1.4
		c0.4,0,0.9-0.1,1.2-0.3L18.6,71.3L18.6,71.3z M14.9,69.1c0,1.6-0.8,2.5-2.4,2.5c-1.3,0-1.8-0.5-1.8-1.4c0-1.2,0.9-1.5,2.5-1.7
		c1-0.1,1.5-0.3,1.8-0.5V69.1z M26.5,64.9v-2.8c-0.2-0.1-0.4-0.1-0.7-0.1c-1.5,0-2.9,0.9-3.5,2.3h0v-2h-2.9v10.9h3v-4.9
		c0-2,0.8-3.5,3-3.5C25.8,64.8,26.1,64.9,26.5,64.9z M34.5,63.8L34.5,63.8c-0.7-1.2-2-1.8-3.3-1.7c-3.1,0-4.7,2.6-4.7,5.4
		c0,3.2,1.5,5.5,4.7,5.5c1.3,0.1,2.6-0.6,3.3-1.7h0v1.5c0,1.7-0.9,2.6-2.4,2.6c-1.2,0-2-0.4-2.2-1.5h-3c0.1,2.2,2.3,3.5,4.8,3.5
		c4,0,5.7-2,5.7-4.8V62.4h-2.9V63.8z M34.5,67.6c0,1.7-0.9,3-2.6,3c-1.7,0-2.4-1.5-2.4-3.3c0-1.8,0.9-3.1,2.4-3.1
		C34,64.3,34.5,66.1,34.5,67.6z M49.1,68v0.6h-7.9c0.1,1.9,1,2.8,2.7,2.8c1.1,0,2.2-0.7,2.4-1.4h2.6c-0.8,2.5-2.5,3.7-5.1,3.7
		c-3.5,0-5.6-2.4-5.6-5.7c0-3.3,2.3-5.7,5.6-5.7C47.2,62.1,49.1,64.8,49.1,68z M46.1,66.6c-0.3-1.6-1-2.3-2.4-2.3
		c-0.6,0-1.3,0.2-1.7,0.6c-0.5,0.4-0.7,1.1-0.7,1.7H46.1z M53.6,59.1v3.3h2.2v2h-2.2v5.4c0,1,0.3,1.3,1.3,1.3c0.3,0,0.6,0,0.9-0.1
		v2.3c-0.6,0.1-1.2,0.1-1.8,0.1c-2.3,0-3.4-0.7-3.4-2.6v-6.4h-1.8v-2h1.8v-3.3H53.6z">
  </path>
 </g>
</svg>